HIERARCHY
ROOT Hips
{
	OFFSET 0.00 0.00 0.00
	CHANNELS 6 Xposition Yposition Zposition Zrotation Yrotation Xrotation
	JOINT Spine
	{
		OFFSET 0.00000 0.00000 3.80709
		CHANNELS 3 Zrotation Yrotation Xrotation
		JOINT Spine1
		{
			OFFSET 0.00000 -0.66110 3.74925
			CHANNELS 3 Zrotation Yrotation Xrotation
			JOINT Spine2
			{
				OFFSET 0.00000 -0.33181 3.79261
				CHANNELS 3 Zrotation Yrotation Xrotation
				JOINT Spine3
				{
					OFFSET 0.00000 -0.00000 3.80709
					CHANNELS 3 Zrotation Yrotation Xrotation
					JOINT Neck
					{
						OFFSET 0.00000 0.48948 4.89483
						CHANNELS 3 Zrotation Yrotation Xrotation
						JOINT Neck1
						{
							OFFSET 0.00000 0.18562 2.12173
							CHANNELS 3 Zrotation Yrotation Xrotation
							JOINT Head
							{
								OFFSET 0.00000 0.36984 2.09748
								CHANNELS 3 Zrotation Yrotation Xrotation
								End Site
								{
									OFFSET 0.00000 -0.00001 3.59976
								}
							}
						}
					}
					JOINT RightShoulder
					{
						OFFSET 0.00000 -0.00000 3.42638
						CHANNELS 3 Yrotation Zrotation Xrotation
						JOINT RightArm
						{
							OFFSET 6.20556 -0.00000 0.00000
							CHANNELS 3 Zrotation Yrotation Xrotation
							JOINT RightForeArm
							{
								OFFSET 11.98982 -0.00000 0.00000
								CHANNELS 3 Zrotation Yrotation Xrotation
								JOINT RightHand
								{
									OFFSET 8.94491 -0.00000 0.00000
									CHANNELS 3 Yrotation Zrotation Xrotation
									JOINT RightHandMiddle1
									{
										OFFSET 3.86714 -0.00000 0.00000
										CHANNELS 3 Yrotation Zrotation Xrotation
										JOINT RightHandMiddle2
										{
											OFFSET 2.06409 -0.00000 0.00000
											CHANNELS 3 Xrotation Yrotation Zrotation
											JOINT RightHandMiddle3
											{
												OFFSET 1.29302 -0.00000 0.00000
												CHANNELS 3 Xrotation Yrotation Zrotation
												End Site
												{
													OFFSET 0.82729 -0.00000 0.00000
												}
											}
										}
									}
									JOINT RightHandRing
									{
										OFFSET 0.09915 -0.17954 -0.09915
										CHANNELS 3 Zrotation Yrotation Xrotation
										JOINT RightHandRing1
										{
											OFFSET 3.43702 -0.31017 0.00000
											CHANNELS 3 Yrotation Zrotation Xrotation
											JOINT RightHandRing2
											{
												OFFSET 1.93316 -0.17446 0.00000
												CHANNELS 3 Xrotation Yrotation Zrotation
												JOINT RightHandRing3
												{
													OFFSET 1.28980 -0.11640 0.00000
													CHANNELS 3 Xrotation Yrotation Zrotation
													End Site
													{
														OFFSET 0.81920 -0.07393 0.00000
													}
												}
											}
										}
										JOINT RightHandPinky
										{
											OFFSET 0.08261 -0.18773 -0.09915
											CHANNELS 3 Zrotation Yrotation Xrotation
											JOINT RightHandPinky1
											{
												OFFSET 2.91281 -0.65136 0.00000
												CHANNELS 3 Yrotation Zrotation Xrotation
												JOINT RightHandPinky2
												{
													OFFSET 1.51743 -0.33933 0.00000
													CHANNELS 3 Xrotation Yrotation Zrotation
													JOINT RightHandPinky3
													{
														OFFSET 0.99864 -0.22332 0.00000
														CHANNELS 3 Xrotation Yrotation Zrotation
														End Site
														{
															OFFSET 0.74053 -0.16560 0.00000
														}
													}
												}
											}
										}
									}
									JOINT RightHandIndex
									{
										OFFSET 0.09915 0.17954 -0.09915
										CHANNELS 3 Zrotation Yrotation Xrotation
										JOINT RightHandIndex1
										{
											OFFSET 3.76758 0.34000 0.00000
											CHANNELS 3 Yrotation Zrotation Xrotation
											JOINT RightHandIndex2
											{
												OFFSET 1.98813 0.17942 0.00000
												CHANNELS 3 Xrotation Yrotation Zrotation
												JOINT RightHandIndex3
												{
													OFFSET 1.19521 0.10786 0.00000
													CHANNELS 3 Xrotation Yrotation Zrotation
													End Site
													{
														OFFSET 0.74912 0.06760 0.00000
													}
												}
											}
										}
										JOINT RightHandThumb1
										{
											OFFSET 0.08261 0.18773 -0.29744
											CHANNELS 3 Zrotation Yrotation Xrotation
											JOINT RightHandThumb2
											{
												OFFSET 2.45633 0.90164 0.00000
												CHANNELS 3 Yrotation Zrotation Xrotation
												JOINT RightHandThumb3
												{
													OFFSET 1.53922 0.56500 0.00000
													CHANNELS 3 Xrotation Yrotation Zrotation
													End Site
													{
														OFFSET 0.96720 0.35503 0.00000
													}
												}
											}
										}
									}
								}
							}
						}
					}
					JOINT LeftShoulder
					{
						OFFSET 0.00000 -0.00000 3.42638
						CHANNELS 3 Yrotation Zrotation Xrotation
						JOINT LeftArm
						{
							OFFSET -6.20556 -0.00000 0.00000
							CHANNELS 3 Zrotation Yrotation Xrotation
							JOINT LeftForeArm
							{
								OFFSET -11.98982 -0.00000 0.00000
								CHANNELS 3 Zrotation Yrotation Xrotation
								JOINT LeftHand
								{
									OFFSET -8.94491 -0.00000 0.00000
									CHANNELS 3 Yrotation Zrotation Xrotation
									JOINT LeftHandMiddle1
									{
										OFFSET -3.53137 -0.00000 0.00000
										CHANNELS 3 Yrotation Zrotation Xrotation
										JOINT LeftHandMiddle2
										{
											OFFSET -1.89421 -0.00000 0.00000
											CHANNELS 3 Xrotation Yrotation Zrotation
											JOINT LeftHandMiddle3
											{
												OFFSET -1.18243 -0.00000 0.00000
												CHANNELS 3 Xrotation Yrotation Zrotation
												End Site
												{
													OFFSET -0.75907 -0.00000 0.00000
												}
											}
										}
									}
									JOINT LeftHandRing
									{
										OFFSET -0.09915 -0.15386 -0.09915
										CHANNELS 3 Zrotation Yrotation Xrotation
										JOINT LeftHandRing1
										{
											OFFSET -3.14442 -0.28376 0.00000
											CHANNELS 3 Yrotation Zrotation Xrotation
											JOINT LeftHandRing2
											{
												OFFSET -1.77265 -0.15997 0.00000
												CHANNELS 3 Xrotation Yrotation Zrotation
												JOINT LeftHandRing3
												{
													OFFSET -1.18194 -0.10666 0.00000
													CHANNELS 3 Xrotation Yrotation Zrotation
													End Site
													{
														OFFSET -0.75165 -0.06783 0.00000
													}
												}
											}
										}
										JOINT LeftHandPinky
										{
											OFFSET -0.08492 -0.16214 -0.09915
											CHANNELS 3 Zrotation Yrotation Xrotation
											JOINT LeftHandPinky1
											{
												OFFSET -2.66923 -0.59689 0.00000
												CHANNELS 3 Yrotation Zrotation Xrotation
												JOINT LeftHandPinky2
												{
													OFFSET -1.39260 -0.31141 0.00000
													CHANNELS 3 Xrotation Yrotation Zrotation
													JOINT LeftHandPinky3
													{
														OFFSET -0.91801 -0.20529 0.00000
														CHANNELS 3 Xrotation Yrotation Zrotation
														End Site
														{
															OFFSET -0.67947 -0.15194 0.00000
														}
													}
												}
											}
										}
									}
									JOINT LeftHandIndex
									{
										OFFSET -0.09915 0.15386 -0.09915
										CHANNELS 3 Zrotation Yrotation Xrotation
										JOINT LeftHandIndex1
										{
											OFFSET -3.44268 0.31068 0.00000
											CHANNELS 3 Yrotation Zrotation Xrotation
											JOINT LeftHandIndex2
											{
												OFFSET -1.82607 0.16479 0.00000
												CHANNELS 3 Xrotation Yrotation Zrotation
												JOINT LeftHandIndex3
												{
													OFFSET -1.09509 0.09883 0.00000
													CHANNELS 3 Xrotation Yrotation Zrotation
													End Site
													{
														OFFSET -0.68735 0.06203 0.00000
													}
												}
											}
										}
										JOINT LeftHandThumb1
										{
											OFFSET -0.08492 0.16214 -0.29744
											CHANNELS 3 Zrotation Yrotation Xrotation
											JOINT LeftHandThumb2
											{
												OFFSET -2.24995 0.82589 0.00000
												CHANNELS 3 Yrotation Zrotation Xrotation
												JOINT LeftHandThumb3
												{
													OFFSET -1.41110 0.51797 0.00000
													CHANNELS 3 Xrotation Yrotation Zrotation
													End Site
													{
														OFFSET -0.88745 0.32575 0.00000
													}
												}
											}
										}
									}
								}
							}
						}
					}
				}
			}
		}
	}
	JOINT RightUpLeg
	{
		OFFSET 4.10948 0.00000 0.00000
		CHANNELS 3 Zrotation Yrotation Xrotation
		JOINT RightLeg
		{
			OFFSET 0.00000 0.00000 -16.03257
			CHANNELS 3 Xrotation Yrotation Zrotation
			JOINT RightFoot
			{
				OFFSET 0.00000 0.00000 -15.81429
				CHANNELS 3 Zrotation Yrotation Xrotation
				JOINT RightToeBase
				{
					OFFSET 0.00000 5.17902 -1.32242
					CHANNELS 3 Xrotation Yrotation Zrotation
					End Site
					{
						OFFSET 0.00000 2.39290 0.00000
					}
				}
			}
		}
	}
	JOINT LeftUpLeg
	{
		OFFSET -4.10948 0.00000 0.00000
		CHANNELS 3 Zrotation Yrotation Xrotation
		JOINT LeftLeg
		{
			OFFSET 0.00000 0.00000 -16.03257
			CHANNELS 3 Xrotation Yrotation Zrotation
			JOINT LeftFoot
			{
				OFFSET 0.00000 0.00000 -15.81429
				CHANNELS 3 Zrotation Yrotation Xrotation
				JOINT LeftToeBase
				{
					OFFSET 0.00000 5.17902 -1.32242
					CHANNELS 3 Xrotation Yrotation Zrotation
					End Site
					{
						OFFSET 0.00000 2.09643 0.00000
					}
				}
			}
		}
	}
}
MOTION
Frames: 7
Frame Time: 0.008333
 1.5009 34.7999 -24.2193 -179.1930 -0.9779 101.8462 -0.0976 0.1450 -4.7884 -0.1099 0.1360 -4.7884 -0.1153 0.0768 1.0180 -0.1153 0.0768 1.0180 2.6527 0.9068 -12.6967 3.0718 -0.9517 -5.6602 2.6326 -4.4249 4.0055 -14.1666 4.0044 1.0099 5.1067 6.3716 -7.7959 8.8190 -0.0000 10.9402 6.5895 -8.5720 0.9864 2.0854 -31.0492 1.0759 -0.0000 -6.5490 -0.0000 -0.0000 -4.6011 -0.0000 -2.6958 1.1712 9.1291 1.7672 -21.5641 0.7981 -0.0567 -0.6281 -0.0003 -0.6250 -6.8922 -0.0376 -2.6177 0.9998 6.7766 3.5597 1.9635 0.6745 -0.6308 -2.8186 -0.0155 0.2826 1.2634 -0.0031 5.6250 -0.6884 3.3873 8.8845 -40.8475 5.2294 -0.0861 0.9538 0.0007 -0.1663 1.8420 0.0027 7.3286 8.7539 -38.5396 4.8161 -5.5158 -1.4179 -0.0582 0.1591 -0.0977 13.6826 0.8058 -0.1962 -3.8007 -7.8290 -17.7544 -1.9189 0.0000 21.4544 -16.7427 7.4286 2.2274 13.0380 21.3239 -4.8133 -0.0000 -32.3782 -0.0000 -0.0000 -15.9406 -0.0000 2.1613 0.3941 11.0592 9.0253 8.0168 -2.0821 3.4385 -33.6087 1.0387 1.4630 -15.7975 0.2030 1.8168 -0.4528 5.4031 12.0623 -3.2156 -2.0477 6.0625 -25.2811 1.3608 4.3068 -18.5635 0.7042 -6.1114 -1.1977 1.4572 14.3392 29.2375 -5.9723 -3.6228 -34.9989 -1.1426 -0.7065 -7.7805 -0.0481 -4.6980 -11.2992 -36.2960 2.6406 -1.6239 1.0025 -3.5636 -11.7859 6.7687 -1.4531 -4.9057 -16.7942 -1.5601 -0.0000 -0.0000 -6.4537 6.4724 6.6176 -2.1654 0.0000 0.0000 4.1511 4.2589 -14.9954 -4.7505 0.0000 -0.0000 9.0760 -3.9138 2.3299 7.1136 -0.0000 0.0000
 1.5003 34.8000 -24.2214 -179.1941 -0.9890 101.8549 -0.0980 0.1469 -4.7973 -0.1104 0.1378 -4.7973 -0.1160 0.0700 1.0195 -0.1160 0.0700 1.0195 2.6616 0.8977 -12.7212 3.0792 -0.9523 -5.6645 2.6390 -4.4157 4.0290 -14.1658 4.0062 1.0103 5.1092 6.3693 -7.7869 8.8122 -0.0000 10.9232 6.5924 -8.5654 0.9861 2.1081 -30.9678 1.0851 -0.0000 -6.5800 -0.0000 -0.0000 -4.6240 -0.0000 -2.6972 1.1716 9.1209 1.7697 -21.5345 0.7984 -0.0569 -0.6308 -0.0003 -0.6257 -6.8994 -0.0377 -2.6150 1.0028 6.7909 3.5702 1.9219 0.6791 -0.6215 -2.7771 -0.0151 0.2845 1.2719 -0.0032 5.6189 -0.6927 3.3638 8.8272 -40.7418 5.1820 -0.0785 0.8696 0.0006 -0.1632 1.8073 0.0026 7.3392 8.7502 -38.5179 4.8026 -5.5316 -1.4115 -0.0628 0.1717 -0.1055 13.6892 0.7992 -0.1946 -3.8312 -7.8214 -17.7708 -1.8935 0.0000 21.4972 -16.7676 7.3604 2.2105 13.0557 21.3300 -4.8214 -0.0000 -32.2046 -0.0000 -0.0000 -15.8263 -0.0000 2.1532 0.3871 11.0515 9.0232 8.0653 -2.0891 3.4168 -33.4417 1.0267 1.4526 -15.6906 0.2001 1.7914 -0.4628 5.4297 12.0979 -3.1204 -2.0746 6.0232 -25.1379 1.3441 4.2865 -18.4820 0.6977 -6.1051 -1.1953 1.4786 14.3940 29.2252 -5.9930 -3.5925 -34.7740 -1.1253 -0.6983 -7.6911 -0.0469 -4.6547 -11.3089 -36.3617 2.6326 -1.6234 0.9995 -3.5577 -11.7618 6.7556 -1.4551 -4.9033 -16.8077 -1.5470 0.0000 -0.0000 -6.4660 6.4728 6.6096 -2.1696 0.0000 -0.0000 4.1482 4.2621 -14.9953 -4.7581 0.0000 -0.0000 9.0670 -3.9242 2.3338 7.1000 0.0000 -0.0000
 1.5031 34.8015 -24.2179 -179.1902 -1.0116 101.8299 -0.0991 0.1512 -4.7801 -0.1119 0.1420 -4.7801 -0.1177 0.0653 1.0042 -0.1177 0.0653 1.0042 2.6478 0.9410 -12.6755 3.0768 -0.9651 -5.6617 2.6329 -4.5062 3.9730 -14.2029 3.9575 1.0007 5.1608 6.3967 -7.7850 8.7954 -0.0000 10.9548 6.5238 -8.4858 0.9668 2.1312 -30.9442 1.0962 -0.0000 -6.6107 -0.0000 -0.0000 -4.6333 -0.0000 -2.7043 1.1683 9.1034 1.7703 -21.5425 0.7989 -0.0561 -0.6219 -0.0003 -0.6253 -6.8950 -0.0377 -2.6281 1.0004 6.7733 3.5284 1.8714 0.6743 -0.6162 -2.7532 -0.0148 0.2908 1.3001 -0.0033 5.6200 -0.6812 3.3565 8.8436 -40.7041 5.1871 -0.0738 0.8181 0.0005 -0.1609 1.7819 0.0025 7.2842 8.7879 -38.5554 4.8013 -5.5314 -1.4111 -0.0594 0.1623 -0.0997 13.6805 0.7965 -0.1939 -3.8456 -7.8133 -17.7391 -1.9246 0.0000 21.4573 -16.7456 7.3919 2.2168 13.0050 21.0803 -4.7487 -0.0000 -31.9308 -0.0000 -0.0000 -15.7315 -0.0000 2.1611 0.3786 11.0643 8.9955 7.8192 -2.0445 3.3914 -33.2459 1.0127 1.4420 -15.5814 0.1973 1.7909 -0.4546 5.4419 12.0860 -3.3451 -2.0238 5.9875 -25.0077 1.3290 4.2617 -18.3824 0.6899 -6.1247 -1.1937 1.5511 14.4787 29.0448 -5.9873 -3.5551 -34.4939 -1.1040 -0.6867 -7.5648 -0.0454 -4.6281 -11.3048 -36.4739 2.6409 -1.5931 1.0012 -3.5416 -11.6957 6.7196 -1.4350 -4.9034 -16.7990 -1.5355 -0.0000 -0.0000 -6.5021 6.4393 6.5951 -2.1293 0.0000 -0.0000 4.0779 4.2332 -14.9914 -4.7184 0.0000 0.0000 9.1127 -3.9253 2.3149 7.1194 0.0000 -0.0000
 1.5029 34.8044 -24.2228 -179.1857 -1.0488 101.8695 -0.0992 0.1381 -4.7998 -0.1108 0.1289 -4.7998 -0.1160 0.0733 0.9952 -0.1160 0.0733 0.9952 2.6434 0.9559 -12.6995 3.0767 -0.9707 -5.6626 2.6292 -4.5403 4.0040 -14.1907 3.9666 1.0021 5.0722 6.3726 -7.7811 8.8976 -0.0000 10.8574 6.5217 -8.5430 0.9729 2.1393 -30.7931 1.0956 -0.0000 -6.7185 -0.0000 -0.0000 -4.6814 -0.0000 -2.7136 1.1683 9.1293 1.8034 -21.3934 0.8096 -0.0580 -0.6428 -0.0003 -0.6292 -6.9376 -0.0381 -2.6558 0.9922 6.7851 3.5687 1.9902 0.6745 -0.5959 -2.6629 -0.0139 0.2864 1.2804 -0.0032 5.6254 -0.6922 3.3259 8.7321 -40.5792 5.1055 -0.0565 0.6257 0.0003 -0.1577 1.7467 0.0024 7.3803 8.7670 -38.4591 4.7838 -5.5582 -1.4022 -0.0670 0.1830 -0.1124 13.6551 0.7459 -0.1812 -3.8481 -7.7730 -17.7143 -1.9657 0.0000 21.3984 -16.7071 7.3639 2.2031 13.0237 21.2448 -4.7910 -0.0000 -31.9793 -0.0000 -0.0000 -15.7536 -0.0000 2.1526 0.3697 11.0762 8.9917 7.9646 -2.0661 3.4002 -33.3136 1.0175 1.4454 -15.6162 0.1982 1.7739 -0.4720 5.4509 12.0887 -3.2161 -2.0522 6.0148 -25.1073 1.3405 4.2660 -18.3995 0.6912 -6.1128 -1.1876 1.5392 14.4434 29.2107 -6.0109 -3.5577 -34.5132 -1.1055 -0.6844 -7.5396 -0.0451 -4.6311 -11.3069 -36.4246 2.6341 -1.6023 0.9991 -3.5472 -11.7188 6.7322 -1.4743 -4.9214 -16.8338 -1.5416 0.0000 -0.0000 -6.4660 6.5104 6.5930 -2.1498 0.0000 -0.0000 4.1435 4.2540 -15.0412 -4.6642 -0.0000 -0.0000 9.0203 -3.8496 2.2709 7.2052 0.0000 -0.0000
 1.5006 34.8025 -24.2258 -179.1910 -1.0486 101.8723 -0.1046 0.1455 -4.8152 -0.1169 0.1359 -4.8152 -0.1225 0.0563 1.0106 -0.1225 0.0563 1.0106 2.6400 0.9829 -12.7134 3.0798 -0.9746 -5.6669 2.6292 -4.5884 4.0131 -14.1871 4.0173 1.0146 5.0497 6.3814 -7.7676 8.8924 -0.0000 10.9007 6.5467 -8.5631 0.9790 2.1278 -30.8609 1.0918 -0.0000 -6.6841 -0.0000 -0.0000 -4.6677 -0.0000 -2.7056 1.1709 9.1300 1.7920 -21.4320 0.8055 -0.0582 -0.6450 -0.0003 -0.6288 -6.9338 -0.0381 -2.6381 0.9955 6.7819 3.5683 1.9938 0.6742 -0.6082 -2.7178 -0.0144 0.2854 1.2761 -0.0032 5.6255 -0.6870 3.3597 8.8071 -40.6429 5.1577 -0.0630 0.6983 0.0004 -0.1584 1.7549 0.0024 7.3255 8.7835 -38.5002 4.8204 -5.5390 -1.4169 -0.0599 0.1635 -0.1005 13.6727 0.7726 -0.1879 -3.8767 -7.7571 -17.7381 -1.9459 0.0000 21.4451 -16.7101 7.3302 2.1935 13.0288 21.2952 -4.8037 -0.0000 -32.1693 -0.0000 -0.0000 -15.8453 -0.0000 2.1515 0.3785 11.0697 9.0064 8.0203 -2.0782 3.4191 -33.4597 1.0280 1.4527 -15.6911 0.2002 1.7866 -0.4677 5.4315 12.0768 -3.1553 -2.0633 6.0430 -25.2100 1.3525 4.2846 -18.4743 0.6971 -6.1098 -1.1917 1.5097 14.4049 29.2247 -5.9976 -3.5875 -34.7365 -1.1224 -0.6946 -7.6510 -0.0465 -4.6461 -11.3140 -36.3842 2.6399 -1.6364 1.0028 -3.5591 -11.7674 6.7587 -1.4876 -4.9139 -16.8302 -1.5445 -0.0000 -0.0000 -6.4726 6.4896 6.5995 -2.1607 -0.0000 -0.0000 4.1336 4.2595 -15.0227 -4.7026 0.0000 -0.0000 9.0258 -3.8646 2.2865 7.1875 0.0000 0.0000
 1.5001 34.8018 -24.2286 -179.1888 -1.0497 101.8691 -0.1062 0.1440 -4.8246 -0.1184 0.1342 -4.8246 -0.1239 0.0543 1.0181 -0.1239 0.0543 1.0181 2.6550 0.9734 -12.7094 3.0945 -0.9809 -5.6696 2.6424 -4.5945 4.0009 -14.1909 4.0329 1.0188 5.0527 6.3769 -7.7633 8.8719 -0.0000 10.8893 6.5425 -8.5413 0.9759 2.1307 -30.8705 1.0936 -0.0000 -6.6542 -0.0000 -0.0000 -4.6623 -0.0000 -2.7057 1.1726 9.1159 1.7731 -21.4506 0.7976 -0.0594 -0.6585 -0.0003 -0.6272 -6.9158 -0.0379 -2.6362 1.0033 6.7733 3.5224 1.9879 0.6659 -0.6180 -2.7615 -0.0149 0.2853 1.2755 -0.0032 5.6230 -0.6810 3.3644 8.8412 -40.6406 5.1776 -0.0696 0.7716 0.0005 -0.1602 1.7748 0.0025 7.3034 8.7875 -38.5153 4.8220 -5.5453 -1.4167 -0.0629 0.1719 -0.1056 13.6734 0.7825 -0.1904 -3.8932 -7.7489 -17.7293 -1.9431 0.0000 21.4321 -16.7129 7.3062 2.1868 13.0390 21.3131 -4.8114 -0.0000 -32.3024 -0.0000 -0.0000 -15.9137 -0.0000 2.1570 0.3935 11.0547 9.0190 8.0377 -2.0839 3.4309 -33.5502 1.0345 1.4587 -15.7526 0.2018 1.8142 -0.4570 5.3943 12.0388 -3.1406 -2.0598 6.0564 -25.2586 1.3582 4.3015 -18.5422 0.7025 -6.1116 -1.2028 1.4832 14.3956 29.2161 -5.9916 -3.6132 -34.9280 -1.1371 -0.7023 -7.7342 -0.0475 -4.6834 -11.2877 -36.3166 2.6613 -1.5791 1.0080 -3.5616 -11.7776 6.7642 -1.4764 -4.9113 -16.8205 -1.5507 0.0000 -0.0000 -6.4900 6.4892 6.6058 -2.1706 0.0000 -0.0000 4.1098 4.2502 -15.0028 -4.7302 0.0000 -0.0000 9.0485 -3.8989 2.3002 7.1606 0.0000 -0.0000
 1.4990 34.8020 -24.2320 -179.1888 -1.0473 101.8596 -0.1002 0.1362 -4.8247 -0.1116 0.1270 -4.8247 -0.1167 0.0660 1.0193 -0.1167 0.0660 1.0193 2.6516 0.9789 -12.7182 3.0938 -0.9881 -5.6740 2.6392 -4.6190 4.0029 -14.2024 4.0322 1.0195 5.0415 6.3689 -7.7746 8.8636 -0.0000 10.8276 6.5578 -8.5183 0.9756 2.1425 -30.8367 1.0986 -0.0000 -6.7091 -0.0000 -0.0000 -4.7009 -0.0000 -2.7072 1.1697 9.1053 1.7740 -21.4444 0.7978 -0.0643 -0.7129 -0.0004 -0.6290 -6.9361 -0.0381 -2.6389 1.0034 6.7769 3.5216 1.9719 0.6667 -0.6240 -2.7882 -0.0152 0.2803 1.2534 -0.0031 5.6163 -0.6865 3.3380 8.7822 -40.6070 5.1386 -0.0622 0.6889 0.0004 -0.1580 1.7508 0.0024 7.3471 8.7654 -38.4802 4.8041 -5.5318 -1.4120 -0.0621 0.1697 -0.1042 13.6548 0.7548 -0.1834 -3.9036 -7.7301 -17.7221 -1.9599 0.0000 21.3926 -16.6716 7.2423 2.1621 13.0586 21.4212 -4.8420 -0.0000 -32.2932 -0.0000 -0.0000 -15.8769 -0.0000 2.1425 0.3815 11.0462 9.0063 8.2043 -2.1067 3.4289 -33.5348 1.0334 1.4558 -15.7237 0.2010 1.7779 -0.4807 5.4225 12.0683 -2.9058 -2.1157 6.0512 -25.2398 1.3560 4.2975 -18.5262 0.7012 -6.0953 -1.1998 1.4841 14.3984 29.2569 -6.0023 -3.6083 -34.8914 -1.1343 -0.6990 -7.6988 -0.0470 -4.6353 -11.3042 -36.3315 2.6566 -1.5749 1.0060 -3.5605 -11.7735 6.7620 -1.4440 -4.8984 -16.8067 -1.5504 0.0000 0.0000 -6.5218 6.4813 6.5997 -2.1457 -0.0000 0.0000 4.0965 4.2474 -14.9864 -4.7332 0.0000 0.0000 9.0617 -3.9051 2.3000 7.1473 0.0000 -0.0000
